<svg xmlns="http://www.w3.org/2000/svg" viewBox="0 0 22.16 18.08"><defs><style>.cls-1{fill:#fff;}</style></defs><g id="Livello_2" data-name="Livello 2"><g id="Livello_1-2" data-name="Livello 1"><path class="cls-1" d="M20.58,9.62a4,4,0,0,0-1.82-.43H17.38L12.69.7l-.4-.7H13.9A2.59,2.59,0,0,1,16,1.34Z"/><path class="cls-1" d="M13.78,18.08,9.66,10.7A4.53,4.53,0,0,0,1,12.4H1v5.68H3.56V16.55h0V12.45a1.91,1.91,0,0,1,3.62-.85h0l2,3.51h0l1.66,3Z"/><path class="cls-1" d="M18.31,18.08h-3l-3.05-5.55a1.75,1.75,0,0,1,1.52-2.6Z"/><path class="cls-1" d="M18.76,9.94H14.67l1.43,2.6h2.66a.8.8,0,0,1,0,1.6H17l1.43,2.6h.34a3.4,3.4,0,0,0,0-6.8Z"/><circle class="cls-1" cx="1.38" cy="9.3" r="1.38"/></g></g></svg>